# MagicaVoxel @ Ephtracy

# group
o 

# material
mtllib untitled.mtl
usemtl palette

# normals
vn -1 0 0
vn 1 0 0
vn 0 0 1
vn 0 0 -1
vn 0 -1 0
vn 0 1 0

# texcoords
vt 0.853516 0.5
vt 0.865234 0.5
vt 0.908203 0.5
vt 0.939453 0.5
vt 0.970703 0.5
vt 0.994141 0.5

# verts
v -2.23517e-08 2.5 -7.45058e-08
v -2.23517e-08 2.5 -1.2
v -2.23517e-08 2.9 -7.45058e-08
v -2.23517e-08 2.9 -1.2
v 0.1 2.5 0.0999999
v 0.1 2.5 -7.45058e-08
v 0.1 2.9 0.0999999
v 0.1 2.9 -7.45058e-08
v 0.3 0 0.0999999
v 0.3 0 -0.4
v 0.3 0.1 -0.3
v 0.3 0.1 -0.4
v 0.3 0.9 0.0999999
v 0.3 0.9 -0.3
v 0.3 1.6 0.0999999
v 0.3 1.6 -0.3
v 0.3 2.5 0.0999999
v 0.3 2.5 -0.3
v 0.3 3.2 0.0999999
v 0.3 3.2 -0.4
v 0.3 3.7 0.0999999
v 0.3 3.7 -0.4
v 0.3 3.8 0.0999999
v 0.3 3.8 -0.4
v 0.4 3.1 0.0999999
v 0.4 3.1 -0.4
v 0.4 3.2 0.0999999
v 0.4 3.2 -0.4
v 0.4 3.8 0.0999999
v 0.4 3.8 -0.4
v 0.4 3.9 0.0999999
v 0.4 3.9 -0.4
v 0.5 3.9 0.0999999
v 0.5 3.9 -0.4
v 0.5 4 0.0999999
v 0.5 4 -0.4
v 0.6 2.9 0.0999999
v 0.6 2.9 -0.3
v 0.6 3 -0.2
v 0.6 3 -0.3
v 0.6 3.1 0.0999999
v 0.6 3.1 -0.2
v 0.6 3.4 -0.4
v 0.6 3.4 -0.5
v 0.6 3.5 -0.4
v 0.6 3.5 -0.5
v 0.7 3.4 -0.5
v 0.7 3.4 -0.6
v 0.7 3.5 -0.4
v 0.7 3.5 -0.5
v 0.7 3.5 -0.6
v 0.7 3.6 -0.4
v 0.7 3.6 -0.5
v 0.9 0 0.0999999
v 0.9 0 -0.4
v 0.9 0.1 -0.3
v 0.9 0.1 -0.4
v 0.9 0.9 0.0999999
v 0.9 0.9 -0.3
v 0.9 1.1 0.0999999
v 0.9 1.1 -0.3
v 1.3 2.5 -0.3
v 1.3 2.5 -1.2
v 1.3 2.9 -0.3
v 1.3 2.9 -1.2
v 0.3 2.5 -0.3
v 0.3 2.5 -1.2
v 0.3 2.9 -0.3
v 0.3 2.9 -1.2
v 0.7 0 0.0999999
v 0.7 0 -0.4
v 0.7 0.1 -0.3
v 0.7 0.1 -0.4
v 0.7 0.9 0.0999999
v 0.7 0.9 -0.3
v 0.7 1.1 0.0999999
v 0.7 1.1 -0.3
v 0.9 3.4 -0.5
v 0.9 3.4 -0.6
v 0.9 3.5 -0.4
v 0.9 3.5 -0.5
v 0.9 3.5 -0.6
v 0.9 3.6 -0.4
v 0.9 3.6 -0.5
v 1 2.9 0.0999999
v 1 2.9 -0.3
v 1 3 -0.2
v 1 3 -0.3
v 1 3.1 0.0999999
v 1 3.1 -0.2
v 1 3.4 -0.4
v 1 3.4 -0.5
v 1 3.5 -0.4
v 1 3.5 -0.5
v 1.1 3.9 0.0999999
v 1.1 3.9 -0.4
v 1.1 4 0.0999999
v 1.1 4 -0.4
v 1.2 3.1 0.0999999
v 1.2 3.1 -0.4
v 1.2 3.2 0.0999999
v 1.2 3.2 -0.4
v 1.2 3.8 0.0999999
v 1.2 3.8 -0.4
v 1.2 3.9 0.0999999
v 1.2 3.9 -0.4
v 1.3 0 0.0999999
v 1.3 0 -0.4
v 1.3 0.1 -0.3
v 1.3 0.1 -0.4
v 1.3 0.9 0.0999999
v 1.3 0.9 -0.3
v 1.3 1.6 0.0999999
v 1.3 1.6 -0.3
v 1.3 2.5 0.0999999
v 1.3 2.5 -0.3
v 1.3 3.2 0.0999999
v 1.3 3.2 -0.4
v 1.3 3.7 0.0999999
v 1.3 3.7 -0.4
v 1.3 3.8 0.0999999
v 1.3 3.8 -0.4
v 1.5 2.5 0.0999999
v 1.5 2.5 -7.45058e-08
v 1.5 2.9 0.0999999
v 1.5 2.9 -7.45058e-08
v 1.6 2.5 -7.45058e-08
v 1.6 2.5 -1.2
v 1.6 2.9 -7.45058e-08
v 1.6 2.9 -1.2
v 0.1 2.5 0.0999999
v 0.1 2.9 0.0999999
v 0.3 0 0.0999999
v 0.3 0.9 0.0999999
v 0.3 1.6 0.0999999
v 0.3 2.5 0.0999999
v 0.3 3.2 0.0999999
v 0.3 3.7 0.0999999
v 0.3 3.8 0.0999999
v 0.4 3.1 0.0999999
v 0.4 3.2 0.0999999
v 0.4 3.7 0.0999999
v 0.4 3.8 0.0999999
v 0.4 3.9 0.0999999
v 0.5 3.8 0.0999999
v 0.5 3.9 0.0999999
v 0.5 4 0.0999999
v 0.6 2.9 0.0999999
v 0.6 3.1 0.0999999
v 0.7 0 0.0999999
v 0.7 0.9 0.0999999
v 0.7 1.1 0.0999999
v 0.9 0 0.0999999
v 0.9 0.9 0.0999999
v 0.9 1.1 0.0999999
v 1 2.9 0.0999999
v 1 3.1 0.0999999
v 1.1 3.8 0.0999999
v 1.1 3.9 0.0999999
v 1.1 4 0.0999999
v 1.2 3.1 0.0999999
v 1.2 3.2 0.0999999
v 1.2 3.7 0.0999999
v 1.2 3.8 0.0999999
v 1.2 3.9 0.0999999
v 1.3 0 0.0999999
v 1.3 0.9 0.0999999
v 1.3 1.6 0.0999999
v 1.3 2.5 0.0999999
v 1.3 3.2 0.0999999
v 1.3 3.7 0.0999999
v 1.3 3.8 0.0999999
v 1.5 2.5 0.0999999
v 1.5 2.9 0.0999999
v -2.23517e-08 2.5 -7.45058e-08
v -2.23517e-08 2.9 -7.45058e-08
v 0.1 2.5 -7.45058e-08
v 0.1 2.9 -7.45058e-08
v 1.5 2.5 -7.45058e-08
v 1.5 2.9 -7.45058e-08
v 1.6 2.5 -7.45058e-08
v 1.6 2.9 -7.45058e-08
v 0.6 3 -0.2
v 0.6 3.1 -0.2
v 1 3 -0.2
v 1 3.1 -0.2
v 0.3 0.1 -0.3
v 0.3 0.9 -0.3
v 0.3 1.6 -0.3
v 0.3 2.5 -0.3
v 0.3 2.9 -0.3
v 0.4 2.5 -0.3
v 0.4 2.6 -0.3
v 0.5 2.5 -0.3
v 0.5 2.6 -0.3
v 0.6 2.9 -0.3
v 0.6 3 -0.3
v 0.7 0.1 -0.3
v 0.7 0.9 -0.3
v 0.7 1.1 -0.3
v 0.9 0.1 -0.3
v 0.9 0.9 -0.3
v 0.9 1.1 -0.3
v 1 2.9 -0.3
v 1 3 -0.3
v 1.1 2.5 -0.3
v 1.1 2.6 -0.3
v 1.2 2.5 -0.3
v 1.2 2.6 -0.3
v 1.3 0.1 -0.3
v 1.3 0.9 -0.3
v 1.3 1.6 -0.3
v 1.3 2.5 -0.3
v 1.3 2.9 -0.3
v 0.3 0 -0.4
v 0.3 0.1 -0.4
v 0.3 3.2 -0.4
v 0.3 3.7 -0.4
v 0.3 3.8 -0.4
v 0.4 3.1 -0.4
v 0.4 3.2 -0.4
v 0.4 3.7 -0.4
v 0.4 3.8 -0.4
v 0.4 3.9 -0.4
v 0.5 3.6 -0.4
v 0.5 3.7 -0.4
v 0.5 3.8 -0.4
v 0.5 3.9 -0.4
v 0.5 4 -0.4
v 0.6 3.2 -0.4
v 0.6 3.3 -0.4
v 0.6 3.4 -0.4
v 0.6 3.5 -0.4
v 0.6 3.6 -0.4
v 0.6 3.7 -0.4
v 0.7 0 -0.4
v 0.7 0.1 -0.4
v 0.7 3.4 -0.4
v 0.7 3.5 -0.4
v 0.7 3.6 -0.4
v 0.9 0 -0.4
v 0.9 0.1 -0.4
v 0.9 3.4 -0.4
v 0.9 3.5 -0.4
v 0.9 3.6 -0.4
v 1 3.2 -0.4
v 1 3.3 -0.4
v 1 3.4 -0.4
v 1 3.5 -0.4
v 1 3.6 -0.4
v 1 3.7 -0.4
v 1.1 3.6 -0.4
v 1.1 3.7 -0.4
v 1.1 3.8 -0.4
v 1.1 3.9 -0.4
v 1.1 4 -0.4
v 1.2 3.1 -0.4
v 1.2 3.2 -0.4
v 1.2 3.7 -0.4
v 1.2 3.8 -0.4
v 1.2 3.9 -0.4
v 1.3 0 -0.4
v 1.3 0.1 -0.4
v 1.3 3.2 -0.4
v 1.3 3.7 -0.4
v 1.3 3.8 -0.4
v 0.6 3.4 -0.5
v 0.6 3.5 -0.5
v 0.7 3.4 -0.5
v 0.7 3.5 -0.5
v 0.7 3.6 -0.5
v 0.9 3.4 -0.5
v 0.9 3.5 -0.5
v 0.9 3.6 -0.5
v 1 3.4 -0.5
v 1 3.5 -0.5
v 0.7 3.4 -0.6
v 0.7 3.5 -0.6
v 0.9 3.4 -0.6
v 0.9 3.5 -0.6
v -2.23517e-08 2.5 -1.2
v -2.23517e-08 2.9 -1.2
v 0.3 2.5 -1.2
v 0.3 2.9 -1.2
v 1.3 2.5 -1.2
v 1.3 2.9 -1.2
v 1.6 2.5 -1.2
v 1.6 2.9 -1.2
v 0.3 0 0.0999999
v 0.7 0 0.0999999
v 0.9 0 0.0999999
v 1.3 0 0.0999999
v 0.3 0 -0.4
v 0.7 0 -0.4
v 0.9 0 -0.4
v 1.3 0 -0.4
v 0.7 1.1 0.0999999
v 0.9 1.1 0.0999999
v 0.7 1.1 -0.3
v 0.9 1.1 -0.3
v 0.1 2.5 0.0999999
v 0.3 2.5 0.0999999
v 1.3 2.5 0.0999999
v 1.5 2.5 0.0999999
v -2.23517e-08 2.5 -7.45058e-08
v 0.1 2.5 -7.45058e-08
v 1.5 2.5 -7.45058e-08
v 1.6 2.5 -7.45058e-08
v 0.3 2.5 -0.3
v 1.3 2.5 -0.3
v -2.23517e-08 2.5 -1.2
v 0.3 2.5 -1.2
v 1.3 2.5 -1.2
v 1.6 2.5 -1.2
v 0.4 3.1 0.0999999
v 0.6 3.1 0.0999999
v 1 3.1 0.0999999
v 1.2 3.1 0.0999999
v 0.6 3.1 -0.2
v 1 3.1 -0.2
v 0.4 3.1 -0.4
v 1.2 3.1 -0.4
v 0.3 3.2 0.0999999
v 0.4 3.2 0.0999999
v 1.2 3.2 0.0999999
v 1.3 3.2 0.0999999
v 0.3 3.2 -0.4
v 0.4 3.2 -0.4
v 1.2 3.2 -0.4
v 1.3 3.2 -0.4
v 0.6 3.4 -0.4
v 0.7 3.4 -0.4
v 0.9 3.4 -0.4
v 1 3.4 -0.4
v 0.6 3.4 -0.5
v 0.7 3.4 -0.5
v 0.9 3.4 -0.5
v 1 3.4 -0.5
v 0.7 3.4 -0.6
v 0.9 3.4 -0.6
v 0.3 0.1 -0.3
v 0.7 0.1 -0.3
v 0.9 0.1 -0.3
v 1.3 0.1 -0.3
v 0.3 0.1 -0.4
v 0.7 0.1 -0.4
v 0.9 0.1 -0.4
v 1.3 0.1 -0.4
v 0.1 2.9 0.0999999
v 0.6 2.9 0.0999999
v 1 2.9 0.0999999
v 1.5 2.9 0.0999999
v -2.23517e-08 2.9 -7.45058e-08
v 0.1 2.9 -7.45058e-08
v 1.5 2.9 -7.45058e-08
v 1.6 2.9 -7.45058e-08
v 0.3 2.9 -0.3
v 0.6 2.9 -0.3
v 1 2.9 -0.3
v 1.3 2.9 -0.3
v -2.23517e-08 2.9 -1.2
v 0.3 2.9 -1.2
v 1.3 2.9 -1.2
v 1.6 2.9 -1.2
v 0.6 3 -0.2
v 1 3 -0.2
v 0.6 3 -0.3
v 1 3 -0.3
v 0.6 3.5 -0.4
v 0.7 3.5 -0.4
v 0.9 3.5 -0.4
v 1 3.5 -0.4
v 0.6 3.5 -0.5
v 0.7 3.5 -0.5
v 0.9 3.5 -0.5
v 1 3.5 -0.5
v 0.7 3.5 -0.6
v 0.9 3.5 -0.6
v 0.7 3.6 -0.4
v 0.9 3.6 -0.4
v 0.7 3.6 -0.5
v 0.9 3.6 -0.5
v 0.3 3.8 0.0999999
v 0.4 3.8 0.0999999
v 1.2 3.8 0.0999999
v 1.3 3.8 0.0999999
v 0.3 3.8 -0.4
v 0.4 3.8 -0.4
v 1.2 3.8 -0.4
v 1.3 3.8 -0.4
v 0.4 3.9 0.0999999
v 0.5 3.9 0.0999999
v 1.1 3.9 0.0999999
v 1.2 3.9 0.0999999
v 0.4 3.9 -0.4
v 0.5 3.9 -0.4
v 1.1 3.9 -0.4
v 1.2 3.9 -0.4
v 0.5 4 0.0999999
v 1.1 4 0.0999999
v 0.5 4 -0.4
v 1.1 4 -0.4

# faces
f 3/5/1 2/5/1 1/5/1
f 4/5/1 2/5/1 3/5/1
f 7/5/1 6/5/1 5/5/1
f 8/5/1 6/5/1 7/5/1
f 11/5/1 10/5/1 9/5/1
f 12/5/1 10/5/1 11/5/1
f 13/5/1 11/5/1 9/5/1
f 14/5/1 11/5/1 13/5/1
f 15/6/1 14/6/1 13/6/1
f 16/6/1 14/6/1 15/6/1
f 17/5/1 16/5/1 15/5/1
f 18/5/1 16/5/1 17/5/1
f 21/5/1 20/5/1 19/5/1
f 22/5/1 20/5/1 21/5/1
f 23/4/1 22/4/1 21/4/1
f 24/4/1 22/4/1 23/4/1
f 27/5/1 26/5/1 25/5/1
f 28/5/1 26/5/1 27/5/1
f 31/4/1 30/4/1 29/4/1
f 32/4/1 30/4/1 31/4/1
f 35/3/1 34/3/1 33/3/1
f 36/3/1 34/3/1 35/3/1
f 39/5/1 38/5/1 37/5/1
f 40/5/1 38/5/1 39/5/1
f 41/5/1 39/5/1 37/5/1
f 42/5/1 39/5/1 41/5/1
f 45/5/1 44/5/1 43/5/1
f 46/5/1 44/5/1 45/5/1
f 50/5/1 48/5/1 47/5/1
f 51/5/1 48/5/1 50/5/1
f 52/5/1 50/5/1 49/5/1
f 53/5/1 50/5/1 52/5/1
f 56/5/1 55/5/1 54/5/1
f 57/5/1 55/5/1 56/5/1
f 58/5/1 56/5/1 54/5/1
f 59/5/1 56/5/1 58/5/1
f 60/6/1 59/6/1 58/6/1
f 61/6/1 59/6/1 60/6/1
f 64/5/1 63/5/1 62/5/1
f 65/5/1 63/5/1 64/5/1
f 66/5/2 67/5/2 68/5/2
f 68/5/2 67/5/2 69/5/2
f 70/5/2 71/5/2 72/5/2
f 72/5/2 71/5/2 73/5/2
f 70/5/2 72/5/2 74/5/2
f 74/5/2 72/5/2 75/5/2
f 74/6/2 75/6/2 76/6/2
f 76/6/2 75/6/2 77/6/2
f 78/5/2 79/5/2 81/5/2
f 81/5/2 79/5/2 82/5/2
f 80/5/2 81/5/2 83/5/2
f 83/5/2 81/5/2 84/5/2
f 85/5/2 86/5/2 87/5/2
f 87/5/2 86/5/2 88/5/2
f 85/5/2 87/5/2 89/5/2
f 89/5/2 87/5/2 90/5/2
f 91/5/2 92/5/2 93/5/2
f 93/5/2 92/5/2 94/5/2
f 95/3/2 96/3/2 97/3/2
f 97/3/2 96/3/2 98/3/2
f 99/5/2 100/5/2 101/5/2
f 101/5/2 100/5/2 102/5/2
f 103/4/2 104/4/2 105/4/2
f 105/4/2 104/4/2 106/4/2
f 107/5/2 108/5/2 109/5/2
f 109/5/2 108/5/2 110/5/2
f 107/5/2 109/5/2 111/5/2
f 111/5/2 109/5/2 112/5/2
f 111/6/2 112/6/2 113/6/2
f 113/6/2 112/6/2 114/6/2
f 113/5/2 114/5/2 115/5/2
f 115/5/2 114/5/2 116/5/2
f 117/5/2 118/5/2 119/5/2
f 119/5/2 118/5/2 120/5/2
f 119/4/2 120/4/2 121/4/2
f 121/4/2 120/4/2 122/4/2
f 123/5/2 124/5/2 125/5/2
f 125/5/2 124/5/2 126/5/2
f 127/5/2 128/5/2 129/5/2
f 129/5/2 128/5/2 130/5/2
f 136/5/3 132/5/3 131/5/3
f 141/5/3 138/5/3 137/5/3
f 142/4/3 139/4/3 138/4/3
f 142/5/3 138/5/3 141/5/3
f 143/4/3 139/4/3 142/4/3
f 145/5/3 141/5/3 140/5/3
f 145/4/3 144/4/3 143/4/3
f 145/5/3 143/5/3 142/5/3
f 145/5/3 142/5/3 141/5/3
f 146/4/3 144/4/3 145/4/3
f 148/5/3 132/5/3 136/5/3
f 148/5/3 136/5/3 135/5/3
f 149/5/3 146/5/3 145/5/3
f 149/5/3 145/5/3 140/5/3
f 150/5/3 134/5/3 133/5/3
f 151/6/3 135/6/3 134/6/3
f 151/5/3 134/5/3 150/5/3
f 152/6/3 135/6/3 151/6/3
f 155/6/3 135/6/3 152/6/3
f 156/5/3 149/5/3 148/5/3
f 156/5/3 148/5/3 135/5/3
f 157/5/3 146/5/3 149/5/3
f 157/5/3 149/5/3 156/5/3
f 158/5/3 146/5/3 157/5/3
f 159/3/3 147/3/3 146/3/3
f 159/5/3 146/5/3 158/5/3
f 160/3/3 147/3/3 159/3/3
f 161/5/3 158/5/3 157/5/3
f 162/5/3 158/5/3 161/5/3
f 163/5/3 158/5/3 162/5/3
f 164/4/3 159/4/3 158/4/3
f 164/5/3 158/5/3 163/5/3
f 165/4/3 159/4/3 164/4/3
f 166/5/3 154/5/3 153/5/3
f 167/6/3 155/6/3 154/6/3
f 167/5/3 154/5/3 166/5/3
f 168/6/3 135/6/3 155/6/3
f 168/6/3 155/6/3 167/6/3
f 168/5/3 156/5/3 135/5/3
f 169/5/3 156/5/3 168/5/3
f 170/5/3 163/5/3 162/5/3
f 171/4/3 164/4/3 163/4/3
f 171/5/3 163/5/3 170/5/3
f 172/4/3 164/4/3 171/4/3
f 173/5/3 156/5/3 169/5/3
f 174/5/3 156/5/3 173/5/3
f 177/5/3 176/5/3 175/5/3
f 178/5/3 176/5/3 177/5/3
f 181/5/3 180/5/3 179/5/3
f 182/5/3 180/5/3 181/5/3
f 183/5/4 184/5/4 185/5/4
f 185/5/4 184/5/4 186/5/4
f 189/5/4 190/5/4 192/5/4
f 190/5/4 191/5/4 192/5/4
f 192/5/4 191/5/4 193/5/4
f 189/5/4 192/5/4 194/5/4
f 192/4/4 193/4/4 194/4/4
f 193/5/4 191/5/4 195/5/4
f 194/4/4 193/4/4 195/4/4
f 194/5/4 195/5/4 196/5/4
f 195/5/4 191/5/4 196/5/4
f 187/5/4 188/5/4 198/5/4
f 188/6/4 189/6/4 199/6/4
f 198/5/4 188/5/4 199/5/4
f 199/6/4 189/6/4 200/6/4
f 200/6/4 189/6/4 203/6/4
f 196/5/4 197/5/4 204/5/4
f 194/5/4 196/5/4 204/5/4
f 204/5/4 197/5/4 205/5/4
f 189/5/4 194/5/4 206/5/4
f 194/5/4 204/5/4 206/5/4
f 206/5/4 204/5/4 207/5/4
f 189/5/4 206/5/4 208/5/4
f 206/4/4 207/4/4 208/4/4
f 207/5/4 204/5/4 209/5/4
f 208/4/4 207/4/4 209/4/4
f 201/5/4 202/5/4 210/5/4
f 202/6/4 203/6/4 211/6/4
f 210/5/4 202/5/4 211/5/4
f 203/6/4 189/6/4 212/6/4
f 211/6/4 203/6/4 212/6/4
f 189/5/4 208/5/4 212/5/4
f 208/5/4 209/5/4 212/5/4
f 212/5/4 209/5/4 213/5/4
f 209/5/4 204/5/4 214/5/4
f 213/5/4 209/5/4 214/5/4
f 217/5/4 218/5/4 221/5/4
f 218/4/4 219/4/4 222/4/4
f 221/5/4 218/5/4 222/5/4
f 222/4/4 219/4/4 223/4/4
f 220/5/4 221/5/4 225/5/4
f 221/5/4 222/5/4 225/5/4
f 222/5/4 223/5/4 225/5/4
f 225/5/4 223/5/4 226/5/4
f 223/4/4 224/4/4 227/4/4
f 226/5/4 223/5/4 227/5/4
f 227/4/4 224/4/4 228/4/4
f 220/5/4 225/5/4 230/5/4
f 230/5/4 225/5/4 231/5/4
f 231/5/4 225/5/4 232/5/4
f 232/5/4 225/5/4 233/5/4
f 225/2/4 226/2/4 234/2/4
f 233/5/4 225/5/4 234/5/4
f 226/5/4 227/5/4 235/5/4
f 234/2/4 226/2/4 235/2/4
f 227/5/4 228/5/4 235/5/4
f 215/5/4 216/5/4 236/5/4
f 236/5/4 216/5/4 237/5/4
f 231/5/4 232/5/4 238/5/4
f 234/5/4 235/5/4 239/5/4
f 233/5/4 234/5/4 239/5/4
f 239/5/4 235/5/4 240/5/4
f 231/5/4 238/5/4 243/5/4
f 240/5/4 235/5/4 245/5/4
f 220/5/4 230/5/4 246/5/4
f 230/1/4 231/1/4 246/1/4
f 231/5/4 243/5/4 247/5/4
f 246/1/4 231/1/4 247/1/4
f 247/5/4 243/5/4 248/5/4
f 244/5/4 245/5/4 249/5/4
f 245/5/4 235/5/4 250/5/4
f 249/5/4 245/5/4 250/5/4
f 235/5/4 228/5/4 251/5/4
f 250/5/4 235/5/4 251/5/4
f 249/5/4 250/5/4 252/5/4
f 247/5/4 248/5/4 252/5/4
f 250/2/4 251/2/4 252/2/4
f 248/5/4 249/5/4 252/5/4
f 246/5/4 247/5/4 252/5/4
f 251/5/4 228/5/4 253/5/4
f 252/2/4 251/2/4 253/2/4
f 253/5/4 228/5/4 254/5/4
f 228/3/4 229/3/4 255/3/4
f 254/5/4 228/5/4 255/5/4
f 255/3/4 229/3/4 256/3/4
f 246/5/4 252/5/4 257/5/4
f 253/5/4 254/5/4 257/5/4
f 220/5/4 246/5/4 257/5/4
f 252/5/4 253/5/4 257/5/4
f 257/5/4 254/5/4 258/5/4
f 258/5/4 254/5/4 259/5/4
f 254/4/4 255/4/4 260/4/4
f 259/5/4 254/5/4 260/5/4
f 260/4/4 255/4/4 261/4/4
f 241/5/4 242/5/4 262/5/4
f 262/5/4 242/5/4 263/5/4
f 258/5/4 259/5/4 264/5/4
f 259/4/4 260/4/4 265/4/4
f 264/5/4 259/5/4 265/5/4
f 265/4/4 260/4/4 266/4/4
f 267/5/4 268/5/4 269/5/4
f 269/5/4 268/5/4 270/5/4
f 270/5/4 271/5/4 273/5/4
f 273/5/4 271/5/4 274/5/4
f 272/5/4 273/5/4 275/5/4
f 275/5/4 273/5/4 276/5/4
f 277/5/4 278/5/4 279/5/4
f 279/5/4 278/5/4 280/5/4
f 281/5/4 282/5/4 283/5/4
f 283/5/4 282/5/4 284/5/4
f 285/5/4 286/5/4 287/5/4
f 287/5/4 286/5/4 288/5/4
f 293/5/5 290/5/5 289/5/5
f 294/5/5 290/5/5 293/5/5
f 295/5/5 292/5/5 291/5/5
f 296/5/5 292/5/5 295/5/5
f 299/6/5 298/6/5 297/6/5
f 300/6/5 298/6/5 299/6/5
f 306/5/5 302/5/5 301/5/5
f 307/5/5 304/5/5 303/5/5
f 309/5/5 306/5/5 305/5/5
f 309/5/5 302/5/5 306/5/5
f 310/5/5 308/5/5 307/5/5
f 310/5/5 307/5/5 303/5/5
f 311/5/5 309/5/5 305/5/5
f 312/5/5 309/5/5 311/5/5
f 313/5/5 308/5/5 310/5/5
f 314/5/5 308/5/5 313/5/5
f 319/5/5 316/5/5 315/5/5
f 320/5/5 318/5/5 317/5/5
f 321/5/5 319/5/5 315/5/5
f 321/5/5 320/5/5 319/5/5
f 322/5/5 318/5/5 320/5/5
f 322/5/5 320/5/5 321/5/5
f 327/5/5 324/5/5 323/5/5
f 328/5/5 324/5/5 327/5/5
f 329/5/5 326/5/5 325/5/5
f 330/5/5 326/5/5 329/5/5
f 335/5/5 332/5/5 331/5/5
f 336/6/5 333/6/5 332/6/5
f 336/5/5 332/5/5 335/5/5
f 337/5/5 334/5/5 333/5/5
f 337/6/5 333/6/5 336/6/5
f 338/5/5 334/5/5 337/5/5
f 339/5/5 337/5/5 336/5/5
f 340/5/5 337/5/5 339/5/5
f 341/5/6 342/5/6 345/5/6
f 345/5/6 342/5/6 346/5/6
f 343/5/6 344/5/6 347/5/6
f 347/5/6 344/5/6 348/5/6
f 349/5/6 350/5/6 354/5/6
f 351/5/6 352/5/6 355/5/6
f 353/5/6 354/5/6 357/5/6
f 354/5/6 350/5/6 357/5/6
f 357/5/6 350/5/6 358/5/6
f 355/5/6 356/5/6 359/5/6
f 351/5/6 355/5/6 359/5/6
f 359/5/6 356/5/6 360/5/6
f 353/5/6 357/5/6 361/5/6
f 361/5/6 357/5/6 362/5/6
f 360/5/6 356/5/6 363/5/6
f 363/5/6 356/5/6 364/5/6
f 365/5/6 366/5/6 367/5/6
f 367/5/6 366/5/6 368/5/6
f 369/5/6 370/5/6 373/5/6
f 373/5/6 370/5/6 374/5/6
f 371/5/6 372/5/6 375/5/6
f 375/5/6 372/5/6 376/5/6
f 374/5/6 375/5/6 377/5/6
f 377/5/6 375/5/6 378/5/6
f 379/5/6 380/5/6 381/5/6
f 381/5/6 380/5/6 382/5/6
f 383/4/6 384/4/6 387/4/6
f 387/4/6 384/4/6 388/4/6
f 385/4/6 386/4/6 389/4/6
f 389/4/6 386/4/6 390/4/6
f 391/4/6 392/4/6 395/4/6
f 395/4/6 392/4/6 396/4/6
f 393/4/6 394/4/6 397/4/6
f 397/4/6 394/4/6 398/4/6
f 399/3/6 400/3/6 401/3/6
f 401/3/6 400/3/6 402/3/6
